HIERARCHY
ROOT Hips
{
	OFFSET -32.860001 56.121803 44.745396
	CHANNELS 6 Xposition Yposition Zposition Zrotation Xrotation Yrotation
	JOINT Chest
	{
		OFFSET -0.637402 0.831600 5.390099
		CHANNELS 6 Xposition Yposition Zposition Zrotation Xrotation Yrotation
		JOINT Chest2
		{
			OFFSET 0.000000 0.000000 4.429901
			CHANNELS 6 Xposition Yposition Zposition Zrotation Xrotation Yrotation
			JOINT Neck
			{
				OFFSET 0.000000 0.000000 10.301395
				CHANNELS 6 Xposition Yposition Zposition Zrotation Xrotation Yrotation
				JOINT Head
				{
					OFFSET 0.000000 0.000000 2.173897
					CHANNELS 6 Xposition Yposition Zposition Zrotation Xrotation Yrotation
					End Site
					{
						OFFSET 0.000000 0.000000 8.298004
					}
				}
			}
			JOINT LeftCollar
			{
				OFFSET 2.142401 -0.572701 5.717800
				CHANNELS 6 Xposition Yposition Zposition Zrotation Xrotation Yrotation
				JOINT LeftShoulder
				{
					OFFSET 5.674000 0.000000 0.000000
					CHANNELS 6 Xposition Yposition Zposition Zrotation Xrotation Yrotation
					JOINT LeftElbow
					{
						OFFSET 0.000000 0.000000 -12.238701
						CHANNELS 6 Xposition Yposition Zposition Zrotation Xrotation Yrotation
						JOINT LeftWrist
						{
							OFFSET 0.000000 0.000000 -10.253700
							CHANNELS 6 Xposition Yposition Zposition Zrotation Xrotation Yrotation
							End Site
							{
								OFFSET 0.000000 0.000000 -2.173901
							}
						}
					}
				}
			}
			JOINT RightCollar
			{
				OFFSET -2.882599 -1.580101 6.695801
				CHANNELS 6 Xposition Yposition Zposition Zrotation Xrotation Yrotation
				JOINT RightShoulder
				{
					OFFSET -4.235600 0.000000 0.000000
					CHANNELS 6 Xposition Yposition Zposition Zrotation Xrotation Yrotation
					JOINT RightElbow
					{
						OFFSET 0.000000 0.000000 -10.709900
						CHANNELS 6 Xposition Yposition Zposition Zrotation Xrotation Yrotation
						JOINT RightWrist
						{
							OFFSET 0.000000 0.000000 -11.716801
							CHANNELS 6 Xposition Yposition Zposition Zrotation Xrotation Yrotation
							End Site
							{
								OFFSET 0.000000 0.000000 -2.173901
							}
						}
					}
				}
			}
		}
	}
	JOINT LeftHip
	{
		OFFSET 2.279499 0.210400 -2.475502
		CHANNELS 6 Xposition Yposition Zposition Zrotation Xrotation Yrotation
		JOINT LeftKnee
		{
			OFFSET 0.000000 -0.000004 -20.742800
			CHANNELS 6 Xposition Yposition Zposition Zrotation Xrotation Yrotation
			JOINT LeftAnkle
			{
				OFFSET 0.000000 0.000000 -16.666000
				CHANNELS 6 Xposition Yposition Zposition Zrotation Xrotation Yrotation
				End Site
				{
					OFFSET 0.000000 -8.310898 0.000000
				}
			}
		}
	}
	JOINT RightHip
	{
		OFFSET -1.961899 0.232300 -2.727402
		CHANNELS 6 Xposition Yposition Zposition Zrotation Xrotation Yrotation
		JOINT RightKnee
		{
			OFFSET 0.000000 -0.000004 -20.526800
			CHANNELS 6 Xposition Yposition Zposition Zrotation Xrotation Yrotation
			JOINT RightAnkle
			{
				OFFSET 0.000000 0.000000 -16.867300
				CHANNELS 6 Xposition Yposition Zposition Zrotation Xrotation Yrotation
				End Site
				{
					OFFSET 0.000000 -7.186401 0.000000
				}
			}
		}
	}
}
MOTION
Frames: 7
Frame Time: 0.041667
-55.036201 12.984398 38.274994 754.501218 10.823606 3.564251 -0.637405 0.831614 5.390105 -40.084840 12.041220 11.883420 -0.000001 0.000006 4.429903 19.079638 -3.772749 0.117819 0.000000 0.000002 10.301391 372.649493 28.125269 3.959675 -0.000001 0.000005 2.173892 -357.744299 3.932525 3.526418 2.142395 -0.572697 5.717797 -2.499104 -5.147996 -15.054242 5.673992 0.000002 -0.000002 324.683807 -740.415783 -89.508844 -0.000005 -0.000001 -12.238698 -728.442188 364.858050 -0.136831 -0.000006 0.000000 -10.253702 -333.889016 19.139515 -14.738597 -2.882608 -1.580095 6.695793 -0.824954 5.020410 -1.029400 -4.235611 0.000010 0.000002 -744.580723 11.541228 -316.308574 0.000003 -0.000003 -10.709906 180.233898 -176.396315 179.636939 -0.000007 0.000000 -11.716802 -1054.338927 14.632193 13.984669 2.279489 0.210411 -2.475506 431.336118 -37.917590 17.173261 -0.000008 -0.000011 -20.742804 -532.073703 -24.834464 79.189951 0.000000 0.000004 -16.666006 465.500505 0.008836 52.718060 -1.961897 0.232307 -2.727400 -1152.470277 -40.407836 -57.870239 0.000004 -0.000004 -20.526798 1032.596632 130.819037 -246.661272 0.000002 0.000004 -16.867300 -23.613313 19.115095 -0.730585
-55.118896 13.074501 38.329094 753.837433 11.051837 3.740787 -0.637412 0.831602 5.390097 -39.599237 12.682899 11.670480 -0.000004 0.000001 4.429903 17.887330 -3.873811 0.058177 -0.000004 0.000002 10.301394 373.056818 28.447345 4.540212 -0.000000 0.000000 2.173900 -357.606739 4.071548 3.735085 2.142397 -0.572697 5.717797 -2.891961 -4.972580 -14.672867 5.674000 0.000003 0.000001 321.135551 -739.604630 -89.804529 -0.000001 0.000006 -12.238697 -728.528140 363.115314 -0.409145 -0.000003 0.000002 -10.253698 -333.234520 19.214371 -15.104128 -2.882606 -1.580097 6.695795 -0.806678 5.348739 -1.179175 -4.235600 0.000010 0.000008 -744.314565 12.269825 -319.174303 0.000001 0.000006 -10.709906 181.773518 -176.688593 179.822611 -0.000003 0.000002 -11.716797 -1055.756328 14.540382 13.432832 2.279496 0.210401 -2.475493 433.829465 -38.094700 18.886368 -0.000004 -0.000002 -20.742809 -532.534932 -25.089887 79.658673 -0.000003 0.000002 -16.665998 465.713389 0.385199 52.863782 -1.961906 0.232298 -2.727396 -1152.296954 -40.472785 -58.093983 0.000006 0.000008 -20.526802 1030.412829 129.671811 -244.930857 -0.000004 0.000005 -16.867304 -21.777490 19.495139 -0.033464
-55.207993 13.173401 38.419289 753.427075 11.280496 3.942146 -0.637397 0.831604 5.390099 -39.374948 13.373834 11.499120 0.000006 0.000007 4.429912 16.799176 -3.988259 -0.017944 0.000002 0.000002 10.301409 373.493513 28.719784 5.085380 -0.000004 -0.000005 2.173900 -357.440520 4.253149 3.945344 2.142396 -0.572698 5.717806 -3.229487 -4.732737 -14.974775 5.673999 0.000004 -0.000004 317.531642 -739.368087 -89.492567 -0.000001 0.000003 -12.238698 -728.977402 361.250126 -0.672913 0.000005 0.000009 -10.253698 -332.710372 18.610527 -14.357584 -2.882602 -1.580097 6.695796 -0.974738 5.617471 -1.494112 -4.235605 0.000007 -0.000010 -743.880055 12.992907 -321.928836 0.000002 0.000004 -10.709905 183.293208 -176.710244 179.947686 0.000001 0.000002 -11.716802 -1057.190559 14.317917 12.921542 2.279503 0.210410 -2.475497 435.889450 -38.350447 20.375245 -0.000002 -0.000008 -20.742800 -532.440239 -24.642482 80.114362 -0.000004 0.000009 -16.666004 465.571157 0.634908 52.916050 -1.961889 0.232302 -2.727407 -1152.370829 -40.362187 -58.289429 0.000000 -0.000003 -20.526800 1027.920849 128.369608 -242.812897 0.000003 0.000003 -16.867302 -19.626888 19.918584 0.609851
-55.302399 13.283810 38.524693 753.200204 11.567210 4.124982 -0.637396 0.831607 5.390103 -39.350086 14.030853 11.367179 -0.000003 -0.000004 4.429906 15.793154 -4.105970 -0.095736 0.000007 -0.000001 10.301395 373.993729 28.864519 5.565159 -0.000006 -0.000001 2.173900 -357.234139 4.392275 4.177526 2.142403 -0.572703 5.717795 -3.788690 -4.510167 -15.374788 5.673996 0.000002 0.000000 314.077479 -739.448137 -89.057969 -0.000001 -0.000001 -12.238703 -730.061872 359.124325 -0.983373 0.000008 0.000000 -10.253700 -331.462305 18.337466 -14.074784 -2.882596 -1.580100 6.695791 -1.173869 5.784105 -1.970093 -4.235605 0.000007 -0.000016 -743.157148 13.784667 -324.533761 0.000004 -0.000000 -10.709903 182.174396 -176.706174 179.867131 -0.000012 0.000002 -11.716799 -1055.831187 14.269963 12.538387 2.279498 0.210404 -2.475496 438.774740 -38.442128 22.448182 -0.000008 -0.000002 -20.742802 -532.804862 -24.270049 80.480187 -0.000002 -0.000005 -16.666002 465.635743 0.708917 53.067189 -1.961889 0.232307 -2.727392 -1152.413231 -40.383282 -58.406081 0.000003 -0.000012 -20.526798 1024.949334 126.952726 -240.370695 -0.000000 0.000005 -16.867300 -17.277387 20.270461 1.151704
-55.398499 13.403397 38.624691 753.142120 11.845473 4.317336 -0.637404 0.831600 5.390095 -39.503850 14.712603 11.280273 0.000010 -0.000002 4.429903 14.873087 -4.221610 -0.171430 0.000002 0.000000 10.301401 374.547220 28.826731 5.957873 -0.000002 -0.000012 2.173903 -357.031582 4.529597 4.412858 2.142400 -0.572698 5.717796 -4.396489 -4.227961 -15.127819 5.673999 0.000008 0.000004 310.456523 -739.112856 -89.118997 -0.000000 -0.000004 -12.238701 -731.567191 356.676877 -1.424119 0.000000 0.000002 -10.253702 -331.582298 19.527825 -13.900993 -2.882601 -1.580098 6.695790 -1.421632 5.978771 -2.781574 -4.235607 0.000007 -0.000007 -742.182617 14.477889 -326.792477 0.000007 -0.000000 -10.709903 179.150179 -176.628624 179.638825 -0.000002 0.000001 -11.716800 -1052.890927 14.295191 12.246789 2.279498 0.210402 -2.475498 442.070033 -38.402578 24.765515 -0.000002 -0.000003 -20.742804 -533.349911 -23.848584 80.727133 -0.000002 -0.000003 -16.666002 465.860156 0.631952 53.269537 -1.961900 0.232295 -2.727406 -1152.460879 -40.452069 -58.459651 -0.000003 -0.000002 -20.526802 1021.854111 125.585923 -237.864234 -0.000001 0.000001 -16.867298 -15.162776 20.299848 1.581477
-55.493996 13.535107 38.705593 753.220366 12.133064 4.501357 -0.637403 0.831600 5.390095 -39.809563 15.389458 11.245688 0.000001 -0.000007 4.429905 14.073413 -4.310056 -0.242492 0.000007 0.000005 10.301402 375.170543 28.561773 6.190417 -0.000008 0.000001 2.173902 -356.856812 4.564322 4.654297 2.142406 -0.572693 5.717800 -5.139566 -3.482132 -15.572292 5.674001 0.000006 -0.000003 307.027658 -739.714405 -89.070345 0.000001 0.000001 -12.238697 -733.622259 354.087607 -2.060354 0.000002 -0.000001 -10.253704 -332.571937 19.915341 -12.540896 -2.882593 -1.580096 6.695798 -1.764341 6.137335 -3.794986 -4.235598 0.000006 -0.000010 -741.041155 15.113102 -328.763697 -0.000006 0.000000 -10.709905 176.480286 -176.459208 179.424971 -0.000009 0.000006 -11.716805 -1050.733899 14.346544 11.956137 2.279492 0.210400 -2.475499 446.134132 -38.084356 27.545668 -0.000006 -0.000003 -20.742800 -534.450609 -23.831648 80.727488 -0.000000 -0.000005 -16.666002 466.563010 0.482459 53.622391 -1.961898 0.232296 -2.727404 -1152.603056 -40.577532 -58.560218 0.000000 -0.000001 -20.526804 1018.862269 124.317311 -235.484377 0.000003 0.000003 -16.867296 -13.047140 20.357591 1.889881
-55.592300 13.672699 38.759293 753.420409 12.430947 4.693078 -0.637400 0.831604 5.390100 -40.253249 16.056276 11.262758 0.000003 -0.000009 4.429897 13.446170 -4.380657 -0.304476 0.000008 0.000002 10.301399 375.851677 28.068452 6.217414 -0.000005 0.000004 2.173899 -356.728759 4.536646 4.927704 2.142399 -0.572700 5.717796 -6.373500 -2.274536 -15.395641 5.674005 0.000001 -0.000007 303.794793 -739.908983 -89.771519 -0.000000 0.000005 -12.238701 -736.049817 351.417030 -2.954944 -0.000001 0.000001 -10.253700 -339.473488 21.488030 -10.222996 -2.882600 -1.580096 6.695790 -2.240535 6.249287 -5.089985 -4.235596 0.000002 -0.000002 -739.698668 15.711860 -330.304560 -0.000009 0.000000 -10.709902 173.446070 -176.300570 179.182964 -0.000019 0.000012 -11.716797 -1048.450102 14.145876 11.547761 2.279495 0.210401 -2.475495 450.406088 -37.564582 30.421686 -0.000007 0.000001 -20.742804 -535.552291 -23.559488 80.693665 -0.000001 -0.000006 -16.666002 467.360448 0.173859 53.869777 -1.961898 0.232301 -2.727409 -1152.953854 -40.664983 -58.813045 -0.000003 -0.000003 -20.526800 1016.319362 123.213949 -233.468488 0.000001 0.000001 -16.867300 -11.104795 20.194417 2.093712
